<svg width="14" height="15" viewBox="0 0 14 15" fill="none" xmlns="http://www.w3.org/2000/svg">
<path d="M6.17816 0.685551C6.57586 0.111837 7.42414 0.111837 7.82184 0.685551L9.25107 2.74728C9.42135 2.99292 9.69257 3.14951 9.99044 3.17416L12.4906 3.38104C13.1863 3.43861 13.6104 4.17323 13.3124 4.80451L12.2415 7.07312C12.1139 7.34341 12.1139 7.65659 12.2415 7.92688L13.3124 10.1955C13.6104 10.8268 13.1863 11.5614 12.4906 11.619L9.99044 11.8258C9.69258 11.8505 9.42135 12.0071 9.25107 12.2527L7.82184 14.3144C7.42414 14.8882 6.57587 14.8882 6.17816 14.3144L4.74893 12.2527C4.57865 12.0071 4.30743 11.8505 4.00956 11.8258L1.50944 11.619C0.813731 11.5614 0.389596 10.8268 0.687593 10.1955L1.75849 7.92688C1.88608 7.65659 1.88608 7.34341 1.75849 7.07312L0.687593 4.80451C0.389596 4.17323 0.813731 3.43861 1.50944 3.38104L4.00956 3.17416C4.30743 3.14951 4.57865 2.99292 4.74893 2.74728L6.17816 0.685551Z" fill="#7F5AF0"/>
</svg>
