<svg width="69" height="46" viewBox="0 0 69 46" fill="none" xmlns="http://www.w3.org/2000/svg">
<path d="M28.8654 24.6527C28.8654 24.6527 20.8232 18.9752 1.11199 0.5C1.11199 0.5 -1.11205 7.33241 3.69171 12.3491C8.49767 17.3659 18.6804 24.6527 18.6804 24.6527C18.6804 24.6527 8.44278 18.1277 0.587268 12.3711C0.587268 12.3711 -1.14938 17.3483 4.45355 21.3331C8.46035 24.1829 19.0998 29.6102 19.0998 29.6102L1.86066 22.1674C1.86066 22.1674 1.78382 25.7593 4.75873 28.2007C7.73363 30.6421 18.8714 33.1581 18.8714 33.1581L3.99689 30.5916C3.99689 30.5916 4.83557 33.7882 7.58215 35.2175C10.3287 36.6468 14.7702 36.5502 19.1393 36.7061L8.34618 37.7358C8.34618 37.7358 9.70081 40.254 12.1027 40.7107C14.5046 41.1673 19.9977 39.7381 19.9977 39.7381L12.9611 42.2365C12.9611 42.2365 16.3817 45.6308 24.1736 42.2365C31.9654 38.8423 28.8654 24.6549 28.8654 24.6549V24.6527Z" fill="white"/>
<path d="M21.1021 33.9353C21.1021 37.0947 22.1844 39.9993 23.9913 42.3068C24.0528 42.2804 24.1121 42.2585 24.1736 42.2321C31.9654 38.8379 28.8654 24.6505 28.8654 24.6505C28.8654 24.6505 28.1606 24.1544 26.6611 22.9754C23.291 25.4475 21.1021 29.4345 21.1021 33.9331V33.9353Z" fill="#4D378C"/>
<path d="M7.58434 35.2153C8.87749 35.8893 10.5461 36.2209 12.4057 36.4031C11.2377 34.8618 10.3177 33.2328 9.62616 31.5598L3.99908 30.5894C3.99908 30.5894 4.83776 33.786 7.58434 35.2153Z" fill="#DDD1FF"/>
<path d="M12.1027 40.7063C13.1697 40.9104 14.8493 40.7392 16.3839 40.4889C15.1435 39.4856 14.0523 38.4076 13.1038 37.2769L8.34618 37.7314C8.34618 37.7314 9.70081 40.2496 12.1027 40.7063Z" fill="#DDD1FF"/>
<path d="M4.76092 28.1985C5.66108 28.9384 7.3121 29.6827 9.17389 30.3655C8.54597 28.5432 8.17713 26.6814 8.0454 24.8372L1.86286 22.1674C1.86286 22.1674 1.78601 25.7593 4.76092 28.2007V28.1985Z" fill="#DDD1FF"/>
<path d="M3.69391 12.3491C5.09683 13.8135 6.95862 15.4733 8.89286 17.087C9.60859 14.6983 10.7327 12.505 12.1927 10.6652C9.00922 7.81542 5.32956 4.45191 1.11419 0.5C1.11419 0.5 -1.10986 7.33241 3.69391 12.3491Z" fill="#DDD1FF"/>
<path d="M4.45575 21.3331C5.36249 21.9764 6.60734 22.7536 7.9927 23.5682C7.96855 21.6669 8.1903 19.7985 8.63599 18.0201C5.9948 16.2264 3.16479 14.257 0.59166 12.3711C0.59166 12.3711 -1.14498 17.3483 4.45794 21.3331H4.45575Z" fill="#DDD1FF"/>
<path d="M16.845 40.8534L12.9611 42.2321C12.9611 42.2321 15.3784 44.6296 20.7771 43.3782C19.3325 42.6098 18.024 41.7645 16.845 40.8534Z" fill="#DDD1FF"/>
<path d="M6.39438 7.45975L24.1604 22.6175C24.1604 22.6175 14.768 16.9904 6.39438 7.45975Z" fill="#DDD1FF"/>
<path d="M8.46474 12.0132L20.6937 21.8359C20.6937 21.8359 12.4496 16.9246 8.63599 13.2493C4.8224 9.57402 8.46474 12.0132 8.46474 12.0132Z" fill="#DDD1FF"/>
<path d="M6.39438 17.8357L17.7649 25.0567C17.7649 25.0567 9.71398 21.0565 6.89276 19.0718C4.07153 17.0871 6.39438 17.8357 6.39438 17.8357Z" fill="#DDD1FF"/>
<path d="M5.24393 24.3871L17.5629 29.8363C17.5629 29.8363 9.00703 27.0766 5.92234 25.5353C2.83766 23.9919 5.24393 24.3871 5.24393 24.3871Z" fill="#DDD1FF"/>
<path d="M5.11879 26.2928L15.8833 30.7145C15.8833 30.7145 8.42961 28.53 5.72914 27.2676C3.02867 26.0052 5.11659 26.2928 5.11659 26.2928H5.11879Z" fill="#DDD1FF"/>
<path d="M4.77409 19.3155L14.8976 25.015C14.8976 25.015 7.78194 21.9369 5.2615 20.3583C2.74106 18.7776 4.77409 19.3177 4.77409 19.3177V19.3155Z" fill="#DDD1FF"/>
<path d="M7.61727 32.4402L18.2216 33.9046C18.2216 33.9046 9.38246 33.5797 7.61727 32.4402Z" fill="#DDD1FF"/>
<path d="M9.44832 34.1154L17.6376 34.8311C17.6376 34.8311 12.5637 34.864 9.71837 34.4732C6.873 34.0824 9.45052 34.1154 9.45052 34.1154H9.44832Z" fill="#DDD1FF"/>
<path d="M11.6307 38.3263L19.8155 37.514C19.8155 37.514 13.7318 39.0355 11.6307 38.3263Z" fill="#DDD1FF"/>
<path d="M13.4639 39.3034L19.1481 38.5152C19.1481 38.5152 16.5376 39.5229 13.4639 39.3034Z" fill="#DDD1FF"/>
<path d="M16.2368 42.0302L20.8715 40.3023C20.8715 40.3023 17.8791 42.0894 16.2368 42.0302Z" fill="#DDD1FF"/>
<path d="M17.8154 42.6844L21.1021 41.253C21.1021 41.253 19.181 42.8469 17.8154 42.6844Z" fill="#DDD1FF"/>
<path d="M40.4664 24.6527C40.4664 24.6527 48.5085 18.9752 68.2198 0.5C68.2198 0.5 70.4438 7.33241 65.6401 12.3491C60.8341 17.3659 50.6514 24.6527 50.6514 24.6527C50.6514 24.6527 60.889 18.1277 68.7445 12.3711C68.7445 12.3711 70.4812 17.3483 64.8782 21.3331C60.8714 24.1829 50.232 29.6102 50.232 29.6102L67.4711 22.1674C67.4711 22.1674 67.548 25.7593 64.5731 28.2007C61.5981 30.6421 50.4604 33.1581 50.4604 33.1581L65.3349 30.5916C65.3349 30.5916 64.4962 33.7882 61.7496 35.2175C59.0031 36.6468 54.5616 36.5502 50.1925 36.7061L60.9856 37.7358C60.9856 37.7358 59.631 40.254 57.2291 40.7107C54.8272 41.1673 49.3341 39.7381 49.3341 39.7381L56.3706 42.2365C56.3706 42.2365 52.9501 45.6308 45.1582 42.2365C37.3664 38.8423 40.4664 24.6549 40.4664 24.6549V24.6527Z" fill="white"/>
<path d="M48.2297 33.9353C48.2297 37.0947 47.1473 39.9993 45.3404 42.3068C45.279 42.2804 45.2197 42.2585 45.1582 42.2321C37.3664 38.8379 40.4664 24.6505 40.4664 24.6505C40.4664 24.6505 41.1712 24.1544 42.6707 22.9754C46.0408 25.4475 48.2297 29.4345 48.2297 33.9331V33.9353Z" fill="#4D378C"/>
<path d="M61.7474 35.2153C60.4543 35.8893 58.7857 36.2209 56.9261 36.4031C58.0941 34.8618 59.014 33.2328 59.7056 31.5598L65.3327 30.5894C65.3327 30.5894 64.494 33.786 61.7474 35.2153Z" fill="#DDD1FF"/>
<path d="M57.2291 40.7063C56.1621 40.9104 54.4825 40.7392 52.9478 40.4889C54.1883 39.4856 55.2795 38.4076 56.2279 37.2769L60.9856 37.7314C60.9856 37.7314 59.631 40.2496 57.2291 40.7063Z" fill="#DDD1FF"/>
<path d="M64.5709 28.1985C63.6707 28.9384 62.0197 29.6827 60.1579 30.3655C60.7858 28.5432 61.1546 26.6814 61.2864 24.8372L67.4689 22.1674C67.4689 22.1674 67.5458 25.7593 64.5709 28.2007V28.1985Z" fill="#DDD1FF"/>
<path d="M65.6379 12.3491C64.2349 13.8135 62.3732 15.4733 60.4389 17.087C59.7232 14.6983 58.5991 12.505 57.1391 10.6652C60.3225 7.81542 64.0022 4.45191 68.2176 0.5C68.2176 0.5 70.4416 7.33241 65.6379 12.3491Z" fill="#DDD1FF"/>
<path d="M64.876 21.3331C63.9693 21.9764 62.7244 22.7536 61.3391 23.5682C61.3632 21.6669 61.1415 19.7985 60.6958 18.0201C63.337 16.2264 66.167 14.257 68.7401 12.3711C68.7401 12.3711 70.4768 17.3483 64.8738 21.3331H64.876Z" fill="#DDD1FF"/>
<path d="M52.4868 40.8534L56.3706 42.2321C56.3706 42.2321 53.9534 44.6296 48.5546 43.3782C49.9993 42.6098 51.3078 41.7645 52.4868 40.8534Z" fill="#DDD1FF"/>
<path d="M62.9374 7.45975L45.1714 22.6175C45.1714 22.6175 54.5637 16.9904 62.9374 7.45975Z" fill="#DDD1FF"/>
<path d="M60.867 12.0132L48.6381 21.8359C48.6381 21.8359 56.8822 16.9246 60.6958 13.2493C64.5094 9.57402 60.867 12.0132 60.867 12.0132Z" fill="#DDD1FF"/>
<path d="M62.9374 17.8357L51.5669 25.0567C51.5669 25.0567 59.6178 21.0565 62.439 19.0718C65.2602 17.0871 62.9374 17.8357 62.9374 17.8357Z" fill="#DDD1FF"/>
<path d="M64.0878 24.3871L51.7689 29.8363C51.7689 29.8363 60.3248 27.0766 63.4094 25.5353C66.4941 23.9919 64.0878 24.3871 64.0878 24.3871Z" fill="#DDD1FF"/>
<path d="M64.213 26.2928L53.4484 30.7145C53.4484 30.7145 60.9022 28.53 63.6026 27.2676C66.3031 26.0074 64.2152 26.2928 64.2152 26.2928H64.213Z" fill="#DDD1FF"/>
<path d="M64.5577 19.3155L54.4342 25.015C54.4342 25.015 61.5498 21.9369 64.0703 20.3583C66.5907 18.7776 64.5577 19.3177 64.5577 19.3177V19.3155Z" fill="#DDD1FF"/>
<path d="M61.7145 32.4402L51.1102 33.9046C51.1102 33.9046 59.9493 33.5797 61.7145 32.4402Z" fill="#DDD1FF"/>
<path d="M59.8834 34.1154L51.6942 34.8311C51.6942 34.8311 56.768 34.864 59.6134 34.4732C62.4588 34.0824 59.8813 34.1154 59.8813 34.1154H59.8834Z" fill="#DDD1FF"/>
<path d="M57.7011 38.3263L49.5163 37.514C49.5163 37.514 55.6 39.0355 57.7011 38.3263Z" fill="#DDD1FF"/>
<path d="M55.8679 39.3034L50.1837 38.5152C50.1837 38.5152 52.7942 39.5229 55.8679 39.3034Z" fill="#DDD1FF"/>
<path d="M53.095 42.0302L48.4602 40.3023C48.4602 40.3023 51.4527 42.0894 53.095 42.0302Z" fill="#DDD1FF"/>
<path d="M51.5164 42.6844L48.2297 41.253C48.2297 41.253 50.1508 42.8469 51.5164 42.6844Z" fill="#DDD1FF"/>
<path d="M39.2593 43.9036C45.5141 41.3651 48.5267 34.2368 45.9882 27.9821C43.4496 21.7273 36.3213 18.7148 30.0666 21.2533C23.8119 23.7918 20.7993 30.9201 23.3378 37.1748C25.8763 43.4295 33.0046 46.4421 39.2593 43.9036Z" fill="#FFA840"/>
<path d="M45.4612 26.8395L28.9356 43.365C29.5899 43.7141 30.2793 44.0039 30.9972 44.2301L46.3284 28.8989C46.1023 28.1809 45.8103 27.4915 45.4634 26.8373L45.4612 26.8395Z" fill="#FFC943"/>
<path d="M44.6269 25.4958C42.9012 23.0698 40.3127 21.3024 37.3093 20.6394L22.7333 35.2153C23.3964 38.2188 25.1637 40.8073 27.5876 42.5329L44.6247 25.4958H44.6269Z" fill="#FFC943"/>
<path d="M38.4231 41.7901C43.5143 39.7155 45.9598 33.9065 43.8852 28.8153C41.8106 23.7241 36.0016 21.2786 30.9104 23.3532C25.8191 25.4277 23.3737 31.2368 25.4482 36.328C27.5228 41.4192 33.3319 43.8647 38.4231 41.7901Z" fill="#FFC943"/>
<path d="M38.2415 41.3238C43.0782 39.3509 45.3999 33.8307 43.427 28.9939C41.4541 24.1571 35.9339 21.8355 31.0971 23.8083C26.2603 25.7812 23.9387 31.3015 25.9116 36.1383C27.8844 40.975 33.4047 43.2967 38.2415 41.3238Z" fill="#FF833E"/>
<path d="M42.7761 27.7243L29.8182 40.6821C30.0268 40.8073 30.2376 40.9236 30.4549 41.0312L43.1252 28.361C43.0176 28.1436 42.899 27.9307 42.7761 27.7243Z" fill="#FFA840"/>
<path d="M38.9735 24.1588L26.2527 36.8795C26.896 38.1354 27.8137 39.2243 28.9246 40.074L42.1701 26.8285C41.3183 25.7176 40.2293 24.8021 38.9757 24.1566L38.9735 24.1588Z" fill="#FFA840"/>
<path d="M38.8351 33.325C38.5849 33.0571 38.2797 32.8398 37.9218 32.6663C38.1743 32.5258 38.3982 32.3656 38.5783 32.1724C38.991 31.7289 39.1974 31.1888 39.1974 30.5477C39.1974 30.0449 39.0745 29.5882 38.8286 29.1733C38.5827 28.7605 38.2248 28.4312 37.7572 28.1853C37.4564 28.0272 37.1117 27.9263 36.7297 27.8692V26.0425H34.9272V27.8165H34.2927V26.0425H32.4901V27.8165H29.8973V29.619H31.5768V36.4404H29.8973V38.2429H32.4901V39.1826H34.2927V38.2429H34.9272V39.1826H36.7297V38.1924C37.171 38.1332 37.5727 38.0212 37.9218 37.8455C38.4487 37.5799 38.8527 37.2176 39.1315 36.761C39.4126 36.3021 39.5531 35.7884 39.5531 35.2175C39.5531 34.4689 39.3138 33.8387 38.8373 33.3272L38.8351 33.325ZM35.6078 29.619C35.992 29.619 36.3015 29.7156 36.5387 29.9066C36.7758 30.0976 36.8921 30.3874 36.8921 30.7694C36.8921 31.1514 36.7736 31.4566 36.5387 31.6476C36.3015 31.8408 35.992 31.9352 35.6078 31.9352H33.8645V29.6168H35.6078V29.619ZM36.8636 36.0408C36.6067 36.3065 36.2532 36.4404 35.801 36.4404H33.8667V33.6938H35.801C36.1061 33.6938 36.3652 33.7531 36.576 33.8717C36.7867 33.9902 36.9536 34.1527 37.07 34.3591C37.1885 34.5655 37.2478 34.8026 37.2478 35.0682C37.2478 35.4524 37.1205 35.7774 36.8636 36.043V36.0408Z" fill="#AD4825"/>
</svg>
